<!-- Generated by IcoMoon.io -->
<svg version="1.1" xmlns="http://www.w3.org/2000/svg" width="32" height="32" viewBox="0 0 32 32">
<path fill="#a3dddc" d="M20.506 14.299c-0.427-0.493-4.398-2.597-5.784-2.989-0.127-0.036-0.253 0.061-0.253 0.193v0.788c0 0.082 0.050 0.155 0.126 0.186 0.568 0.226 2.888 1.175 3.439 1.823h2.471z"></path>
<path fill="#fff" opacity="0.2" d="M15.249 11.491c0.126 0.794 0.814 1.401 1.643 1.401 0.315 0 0.609-0.087 0.86-0.239-0.893-0.46-1.825-0.9-2.503-1.162z"></path>
<path fill="#272f37" d="M10.048 14.413l0.54-1.827c0.094-0.319 0.399-0.529 0.731-0.503v0c0.367 0.029 0.65 0.335 0.65 0.703v1.524l-1.921 0.103z"></path>
<path fill="#de2a4e" d="M1.059 18.252v0c0.851 0.593 1.863 0.91 2.9 0.91h23.796c0.518 0 1.035-0.042 1.547-0.125l1.712-0.278c0.282-0.046 0.489-0.289 0.489-0.575v-1.122c0-0.34-0.181-0.655-0.475-0.826l-0.964-0.562c-1.765-1.028-3.771-1.57-5.813-1.57h-12.144c-0.312 0-0.622-0.045-0.921-0.135l-1.741-0.52c-1.003-0.3-2.074-0.285-3.067 0.043v0c-0.344 0.114-0.705 0.171-1.067 0.171h-2.42c-1.647 0-2.372 1.374-2.372 2.504l-0.023 0.975c-0.010 0.441 0.201 0.857 0.563 1.109z"></path>
<path fill="#ff496a" d="M17.609 14.651l-1.727 0.108c-0.199 0.012-0.37-0.137-0.385-0.335l-0.045-0.6c-0.019-0.249 0.214-0.443 0.456-0.378l1.742 0.463c0.116 0.031 0.199 0.131 0.208 0.25l0.014 0.191c0.012 0.156-0.106 0.291-0.262 0.301z"></path>
<path fill="#000" opacity="0.1" d="M5.992 15.038c-1.693 0-3.066 1.373-3.066 3.066 0 0.344 0.057 0.674 0.162 0.982 0.287 0.050 0.578 0.076 0.872 0.076h4.911c0.121-0.33 0.188-0.686 0.188-1.058 0-1.693-1.373-3.066-3.066-3.066z"></path>
<path fill="#272f37" d="M8.586 18.104c0 1.433-1.161 2.594-2.594 2.594s-2.594-1.161-2.594-2.594c0-1.433 1.161-2.594 2.594-2.594s2.594 1.161 2.594 2.594z"></path>
<path fill="#c7c9c9" d="M7.157 18.104c0 0.643-0.522 1.165-1.165 1.165s-1.165-0.522-1.165-1.165c0-0.643 0.522-1.165 1.165-1.165s1.165 0.522 1.165 1.165z"></path>
<path fill="#000" opacity="0.1" d="M22.888 15.617l-0.822 0.761c-0.141 0.131-0.334 0.191-0.524 0.165l-7.099-0.97c-0.056-0.008-0.051-0.090 0.005-0.091l8.319-0.166c0.16-0.003 0.239 0.193 0.122 0.302z"></path>
<path fill="#000" opacity="0.2" d="M30.139 17.838l-0.837 1.2 1.712-0.278c0.174-0.028 0.319-0.131 0.405-0.273l-0.772-0.706c-0.152-0.138-0.39-0.112-0.508 0.056z"></path>
<path fill="#a3dddc" d="M30.065 15.675c-0.782-0.456-1.613-0.816-2.472-1.076l1.177 1.616c0.166 0.228 0.465 0.317 0.729 0.216l1.128-0.43-0.561-0.327z"></path>
<path fill="#fff" opacity="0.2" d="M25.516 14.176c0.717 0.768 1.738 1.25 2.872 1.25 0.339 0 0.668-0.043 0.981-0.124-1.21-0.598-2.514-0.978-3.853-1.126z"></path>
<path fill="#fff" opacity="0.2" d="M31.029 16.237l-0.759-0.442c-0.017 0.081-0.027 0.164-0.027 0.25 0 0.65 0.527 1.177 1.177 1.177 0.029 0 0.057-0.002 0.085-0.004v-0.153c0-0.34-0.181-0.655-0.475-0.826z"></path>
<path fill="#fff" opacity="0.2" d="M9.445 13.45c-0.73-0.218-1.496-0.269-2.243-0.154 0.396 0.604 1.079 1.003 1.855 1.003 0.551 0 1.055-0.201 1.443-0.534l-1.055-0.315z"></path>
<path fill="#000" opacity="0.1" d="M25.388 15.038c-1.693 0-3.066 1.373-3.066 3.066 0 0.372 0.066 0.729 0.188 1.058h5.246c0.172 0 0.344-0.005 0.516-0.014 0.118-0.326 0.183-0.677 0.183-1.044 0-1.693-1.373-3.066-3.066-3.066z"></path>
<path fill="#272f37" d="M27.982 18.104c0 1.433-1.161 2.594-2.594 2.594s-2.594-1.161-2.594-2.594c0-1.433 1.161-2.594 2.594-2.594s2.594 1.161 2.594 2.594z"></path>
<path fill="#c7c9c9" d="M26.553 18.104c0 0.643-0.522 1.165-1.165 1.165s-1.165-0.522-1.165-1.165c0-0.643 0.522-1.165 1.165-1.165s1.165 0.522 1.165 1.165z"></path>
<path fill="#000" opacity="0.1" d="M18.709 18.454h-7.599c-0.274 0-0.496-0.222-0.496-0.496s0.222-0.496 0.496-0.496h7.599c0.274 0 0.496 0.222 0.496 0.496s-0.222 0.496-0.496 0.496z"></path>
<path fill="#000" d="M31.279 15.809l-0.964-0.562c-1.839-1.072-3.935-1.638-6.063-1.638h-3.82c-1.124-0.765-4.274-2.408-5.574-2.776-0.211-0.060-0.433-0.018-0.608 0.114-0.173 0.131-0.277 0.339-0.277 0.556v0.788c0 0.287 0.172 0.541 0.439 0.647 0.149 0.059 0.42 0.169 0.745 0.309-0.088 0.105-0.15 0.23-0.18 0.363h-2.512v-0.823c0-0.623-0.486-1.149-1.107-1.198-0.563-0.044-1.086 0.317-1.246 0.857l-0.186 0.63-0.338-0.101c-1.106-0.33-2.269-0.314-3.365 0.047-0.295 0.097-0.602 0.146-0.912 0.146h-2.42c-1.141 0-1.822 0.552-2.191 1.015-0.429 0.537-0.675 1.258-0.676 1.98l-0.023 0.969c-0.014 0.609 0.276 1.18 0.775 1.527 0.75 0.523 1.618 0.851 2.524 0.959 0.53 0.94 1.538 1.576 2.692 1.576 1.137 0 2.132-0.618 2.669-1.535h14.059c0.536 0.917 1.531 1.535 2.669 1.535 1.139 0 2.136-0.62 2.672-1.541 0.443-0.013 0.886-0.055 1.322-0.126l1.712-0.278c0.525-0.085 0.906-0.533 0.906-1.065v-1.122c-0-0.515-0.276-0.996-0.721-1.255zM14.965 12.090v-0.177c0.886 0.33 2.363 1.053 3.532 1.695h-0.395c-0.091-0.084-0.202-0.147-0.326-0.18l-0.079-0.021c-0.838-0.525-2.137-1.076-2.733-1.318zM16.827 14.203l-0.845 0.053-0.021-0.283 0.867 0.23zM11.063 12.727c0.028-0.094 0.118-0.157 0.217-0.149 0.108 0.008 0.193 0.1 0.193 0.209v0.746c-0.048-0.012-0.096-0.023-0.144-0.037l-0.453-0.135 0.187-0.633zM5.992 20.202c-1.157 0-2.098-0.941-2.098-2.098s0.941-2.098 2.098-2.098c1.157 0 2.098 0.941 2.098 2.098s-0.941 2.098-2.098 2.098zM25.388 20.202c-1.157 0-2.098-0.941-2.098-2.098s0.941-2.098 2.098-2.098c1.157 0 2.098 0.941 2.098 2.098s-0.941 2.098-2.098 2.098zM31.008 18.186c0 0.043-0.031 0.079-0.073 0.085l-1.712 0.278c-0.262 0.043-0.527 0.073-0.793 0.092 0.031-0.174 0.048-0.353 0.048-0.536 0-1.704-1.386-3.090-3.090-3.090s-3.090 1.386-3.090 3.090c0 0.192 0.018 0.38 0.052 0.562h-13.321c0.034-0.183 0.052-0.37 0.052-0.562 0-1.704-1.386-3.090-3.090-3.090s-3.090 1.386-3.090 3.090c0 0.151 0.011 0.3 0.033 0.445-0.569-0.131-1.11-0.368-1.592-0.704-0.226-0.157-0.357-0.415-0.35-0.69l0.023-0.975c0-0.004 0-0.008 0-0.012 0-0.695 0.392-2.008 1.876-2.008h2.42c0.416 0 0.827-0.066 1.223-0.196 0.902-0.298 1.86-0.311 2.77-0.039l1.741 0.52c0.345 0.103 0.703 0.155 1.063 0.155h2.917c0.093 0.379 0.437 0.656 0.834 0.656 0.018 0 0.036-0.001 0.054-0.002l1.727-0.108c0.209-0.013 0.4-0.107 0.537-0.265 0.072-0.083 0.125-0.178 0.156-0.28h5.918c1.953 0 3.877 0.52 5.564 1.503l0.964 0.562c0.141 0.082 0.229 0.235 0.229 0.398v1.122zM11.276 14.744h-1.324c-0.274 0-0.496 0.222-0.496 0.496s0.222 0.496 0.496 0.496h1.324c0.274 0 0.496-0.222 0.496-0.496s-0.222-0.496-0.496-0.496zM5.992 16.444c-0.916 0-1.661 0.745-1.661 1.661s0.745 1.661 1.661 1.661 1.661-0.745 1.661-1.661c0-0.916-0.745-1.661-1.661-1.661zM5.992 18.773c-0.369 0-0.669-0.3-0.669-0.669s0.3-0.669 0.669-0.669c0.369 0 0.669 0.3 0.669 0.669s-0.3 0.669-0.669 0.669zM25.388 16.444c-0.916 0-1.661 0.745-1.661 1.661s0.745 1.661 1.661 1.661c0.916 0 1.661-0.745 1.661-1.661s-0.745-1.661-1.661-1.661zM25.388 18.773c-0.369 0-0.669-0.3-0.669-0.669s0.3-0.669 0.669-0.669c0.369 0 0.669 0.3 0.669 0.669s-0.3 0.669-0.669 0.669z"></path>
</svg>
